:SAMPLES-PER-SECOND 30
:FULLY-SPECIFIED
:DEGREES
135
root  34.88214748 36.56423674 -14.27477288 10.38839722 -0.514246583 4.452637196
lowerback  -8.748140335 1.758129954 0.6698061824
upperback  -3.921880007 1.873479962 -4.609230042
thorax  1.013499975 0.6859089732 -4.989319801
lowerneck  -11.28859997 -9.192990303 -5.45333004
upperneck  11.12899971 -12.95559883 8.38560009
head  6.143229008 -6.068930149 2.312700033
lclavicle  0 -4.497500157e-015 -2.743230041e-014
lhumerus  -47.52750015 30.34029961 62.00740051
lradius  -0.1145095155 -6.507048965e-006 28.57930183
lwrist  3.192251654e-007 -3.790274832e-007 -30.35050011
lhand  -4.406287275e-031 -36.73759842 -10.57499981
lfingers  90 7.125020027 -90
lthumb  94.71903742 -25.41831517 100.8863553
rclavicle  0 -4.497500157e-015 -2.743230041e-014
rhumerus  55.30739975 -23.45849991 -49.35580063
rradius  -5.16745672e-007 2.214343908e-008 44.35549927
rwrist  0.0006954420824 -0.004670973402 -161.6620026
rhand  -1.770298135e-031 4.191790104 -5.394219875
rfingers  -90 -7.125020027 -90
rthumb  -84.03392151 -10.36903666 -59.85938344
rfemur  -12.02669048 13.96714592 12.33242607
rtibia  -1.123886943 -1.040587306 19.64985847
rfoot  0.3002594709 -20.62825775 -37.902565
rtoes  4.033239797 19.6054349 -101.8673381
lfemur  -5.305384636 -17.59050941 -22.67145157
ltibia  6.575508595 0.2783672512 8.024867058
lfoot  0.6954312921 -23.15933228 34.54832077
ltoes  -8.59651324 -18.12693663 -115.9149292
136
root  34.8831357 36.56292112 -14.27473984 10.36314201 -0.4574982524 4.47307539
lowerback  -8.763970375 1.762730002 0.669339478
upperback  -3.935800076 1.877310038 -4.619190216
thorax  1.008419991 0.6865119934 -4.999080181
lowerneck  -11.29419994 -9.212639809 -5.431789875
upperneck  11.14449978 -12.98099995 8.351070404
head  6.139615059 -6.081930161 2.295540094
lclavicle  0 -4.497500157e-015 -2.743230041e-014
lhumerus  -47.55770111 30.4239006 61.91759872
lradius  -0.1152543277 -6.507048965e-006 28.56570053
lwrist  3.192251654e-007 -3.790274832e-007 -30.48089981
lhand  -4.422448222e-031 -37.01720047 -10.8270998
lfingers  90 7.125020027 -90
lthumb  94.90375899 -25.65577775 101.2085638
rclavicle  0 -4.497500157e-015 -2.743230041e-014
rhumerus  55.69890213 -23.54430199 -49.71300125
rradius  -5.16745672e-007 2.214343908e-008 43.86819839
rwrist  0.0006954420824 -0.004670973402 -161.173996
rhand  -1.771150261e-031 4.552420139 -5.219560146
rfingers  -90 -7.125020027 -90
rthumb  -83.8494512 -10.53667546 -59.48931738
rfemur  -11.99983311 13.94016552 12.33445072
rtibia  -1.139031887 -1.047007561 19.67435455
rfoot  0.2879092991 -20.63851166 -37.91548538
rtoes  4.027376826 19.60659462 -101.8498654
lfemur  -5.252894402 -17.64235306 -22.70811462
ltibia  6.599376202 0.2495944202 7.976057529
lfoot  0.6730881929 -23.08496666 34.50386047
ltoes  -8.584923341 -18.13228411 -115.8776827
137
root  34.88505807 36.56472334 -14.27446501 10.35233593 -0.4078446925 4.475279331
lowerback  -8.77534008 1.774580121 0.6684856415
upperback  -3.938250065 1.891919971 -4.640779972
thorax  1.014129996 0.6920180321 -5.019760132
lowerneck  -11.29740047 -9.230810165 -5.410059929
upperneck  11.13469982 -13.00430012 8.331469536
head  6.135736465 -6.093589783 2.283750057
lclavicle  0 -4.497500157e-015 -2.743230041e-014
lhumerus  -47.54389954 30.48010063 61.85820007
lradius  -0.1159476414 -6.507048965e-006 28.53099823
lwrist  3.192251654e-007 -3.790274832e-007 -30.54789925
lhand  -4.434992872e-031 -37.23160172 -10.94869995
lfingers  90 7.125020027 -90
lthumb  95.0316507 -25.76711055 101.4495838
rclavicle  0 -4.497500157e-015 -2.743230041e-014
rhumerus  56.29249954 -23.72310066 -50.4530983
rradius  -5.16745672e-007 2.214343908e-008 43.21590042
rwrist  0.0006954420824 -0.004670973402 -160.4620056
rhand  -1.771105726e-031 4.534289837 -5.235429764
rfingers  -90 -7.125020027 -90
rthumb  -83.86245778 -10.52215557 -59.50860672
rfemur  -11.95844841 13.93955898 12.34448719
rtibia  -1.142835855 -1.052347779 19.63490677
rfoot  0.2991409302 -20.62298203 -37.95848083
rtoes  4.018244371 19.60839754 -101.8226511
lfemur  -5.420280933 -17.71200752 -22.63736916
ltibia  6.466808319 0.2274525315 8.26832962
lfoot  0.6897667646 -23.16202545 34.47953796
ltoes  -8.566979469 -18.1405455 -115.8200374
138
root  34.8863046 36.56955629 -14.27414061 10.3534832 -0.3593426943 4.494297504
lowerback  -8.759679794 1.783989906 0.6795015931
upperback  -3.942110062 1.903229952 -4.650619984
thorax  1.003209949 0.6982110143 -5.035590172
lowerneck  -11.30720043 -9.255550385 -5.450719833
upperneck  11.13528728 -13.03820038 8.370759964
head  6.132387638 -6.108799934 2.297559977
lclavicle  0 -4.497500157e-015 -2.743230041e-014
lhumerus  -47.55509949 30.48749733 61.84579849
lradius  -0.1165893823 -6.507048965e-006 28.55919838
lwrist  3.192251654e-007 -3.790274832e-007 -30.53129959
lhand  -0 -37.24530029 -10.83619976
lfingers  90 7.125020027 -90
lthumb  95.01339402 -25.65637067 101.4536004
rclavicle  0 -4.497500157e-015 -2.743230041e-014
rhumerus  56.68960571 -23.80410004 -50.88199997
rradius  -5.16745672e-007 2.214343908e-008 42.79309845
rwrist  0.0006954420824 -0.004670973402 -159.9060059
rhand  -1.770738284e-031 4.381810188 -5.056729794
rfingers  -90 -7.125020027 -90
rthumb  -83.81095146 -10.66927669 -59.64132858
rfemur  -11.95329571 13.94062042 12.3480711
rtibia  -1.164271474 -1.01938951 19.64373589
rfoot  0.2852375209 -20.51810455 -38.04024124
rtoes  4.009110568 19.61019644 -101.7954351
lfemur  -5.487935066 -17.73563194 -22.62427521
ltibia  6.422735214 0.2316318452 8.364544868
lfoot  0.702935338 -23.22115517 34.45467377
ltoes  -8.557615147 -18.14484829 -115.7899642
